<?xml version="1.0" encoding="UTF-8"?>
<svg xmlns="http://www.w3.org/2000/svg" xmlns:xlink="http://www.w3.org/1999/xlink" width="359pt" height="222pt" viewBox="0 0 359 222" version="1.1">
<g id="surface365">
<path style="fill:none;stroke-width:1.6;stroke-linecap:square;stroke-linejoin:miter;stroke:rgb(0%,0%,0%);stroke-opacity:1;stroke-miterlimit:3.25;" d="M 110.300781 188.175781 L 396.699219 188.175781 " transform="matrix(1,0,0,1,-74,-13)"/>
<path style="fill:none;stroke-width:1.6;stroke-linecap:square;stroke-linejoin:miter;stroke:rgb(0%,0%,0%);stroke-opacity:1;stroke-miterlimit:3.25;" d="M 110.300781 164.886719 L 396.699219 164.886719 " transform="matrix(1,0,0,1,-74,-13)"/>
<path style="fill:none;stroke-width:1.6;stroke-linecap:square;stroke-linejoin:miter;stroke:rgb(0%,0%,0%);stroke-opacity:1;stroke-miterlimit:3.25;" d="M 110.300781 141.59375 L 396.699219 141.59375 " transform="matrix(1,0,0,1,-74,-13)"/>
<path style="fill:none;stroke-width:1.6;stroke-linecap:square;stroke-linejoin:miter;stroke:rgb(0%,0%,0%);stroke-opacity:1;stroke-miterlimit:3.25;" d="M 110.300781 118.304688 L 396.699219 118.304688 " transform="matrix(1,0,0,1,-74,-13)"/>
<path style="fill-rule:nonzero;fill:rgb(99.998474%,99.998474%,99.998474%);fill-opacity:1;stroke-width:0.03;stroke-linecap:square;stroke-linejoin:miter;stroke:rgb(99.998474%,99.998474%,99.998474%);stroke-opacity:1;stroke-miterlimit:3.25;" d="M 74.5 13.5 L 74.5 223.109375 L 432.5 223.109375 L 432.5 13.5 L 405.351562 13.5 L 403.085938 19.804688 L 395.988281 38.640625 L 388.382812 57.800781 L 381.371094 74.542969 L 373.855469 91.492188 L 366.199219 107.707031 L 359.136719 121.722656 L 351.566406 135.730469 L 344.585938 147.726562 L 337.46875 159.046875 L 329.847656 170.152344 L 322.8125 179.457031 L 315.277344 188.433594 L 308.332031 195.792969 L 301.246094 202.398438 L 297.453125 205.558594 L 295.554688 207.042969 L 294.605469 207.757812 L 294.132812 208.109375 L 293.894531 208.285156 L 293.777344 208.371094 L 293.65625 208.460938 L 290.15625 210.902344 L 288.40625 212.039062 L 287.53125 212.585938 L 287.09375 212.855469 L 286.65625 213.121094 L 282.90625 215.253906 L 281.03125 216.226562 L 280.09375 216.6875 L 279.625 216.910156 L 279.390625 217.019531 L 279.273438 217.078125 L 279.152344 217.132812 L 277.242188 217.988281 L 276.289062 218.394531 L 275.808594 218.589844 L 275.570312 218.683594 L 275.453125 218.734375 L 275.332031 218.78125 L 273.421875 219.503906 L 272.464844 219.84375 L 271.988281 220.003906 L 271.75 220.085938 L 271.628906 220.125 L 271.511719 220.164062 L 269.746094 220.710938 L 268.867188 220.964844 L 268.425781 221.085938 L 268.207031 221.144531 L 268.09375 221.175781 L 267.984375 221.203125 L 267.101562 221.429688 L 266.664062 221.535156 L 266.441406 221.589844 L 266.332031 221.613281 L 266.222656 221.640625 L 265.339844 221.835938 L 264.898438 221.929688 L 264.679688 221.976562 L 264.570312 221.996094 L 264.457031 222.019531 L 263.515625 222.199219 L 263.042969 222.285156 L 262.804688 222.324219 L 262.570312 222.363281 L 261.625 222.511719 L 261.152344 222.578125 L 260.917969 222.613281 L 260.796875 222.628906 L 260.679688 222.644531 L 259.734375 222.757812 L 259.261719 222.808594 L 258.910156 222.84375 L 258.789062 222.855469 L 258.320312 222.898438 L 258.082031 222.921875 L 257.964844 222.929688 L 257.847656 222.941406 L 257.375 222.976562 L 257.136719 222.992188 L 256.902344 223.007812 L 256.464844 223.03125 L 256.25 223.042969 L 256.140625 223.046875 L 256.03125 223.054688 L 255.59375 223.070312 L 255.378906 223.078125 L 254.941406 223.09375 L 254.832031 223.09375 L 254.726562 223.097656 L 254.617188 223.101562 L 254.507812 223.101562 L 254.398438 223.105469 L 254.179688 223.105469 L 254.070312 223.109375 L 252.875 223.109375 L 252.765625 223.105469 L 252.65625 223.105469 L 252.546875 223.101562 L 252.4375 223.101562 L 252.332031 223.097656 L 252.222656 223.097656 L 251.894531 223.085938 L 251.785156 223.085938 L 251.675781 223.082031 L 251.460938 223.074219 L 251.242188 223.066406 L 251.023438 223.054688 L 250.804688 223.046875 L 250.589844 223.035156 L 250.480469 223.027344 L 250.371094 223.023438 L 250.152344 223.007812 L 250.042969 223.003906 L 249.9375 222.996094 L 249.269531 222.949219 L 249.160156 222.941406 L 249.046875 222.929688 L 248.601562 222.894531 L 248.382812 222.875 L 248.269531 222.863281 L 248.160156 222.851562 L 247.714844 222.808594 L 247.492188 222.785156 L 247.382812 222.769531 L 247.269531 222.757812 L 246.828125 222.707031 L 246.605469 222.679688 L 246.492188 222.664062 L 246.382812 222.652344 L 245.496094 222.527344 L 245.050781 222.460938 L 244.828125 222.429688 L 244.71875 222.410156 L 244.605469 222.390625 L 243.71875 222.242188 L 243.273438 222.160156 L 243.050781 222.121094 L 242.941406 222.097656 L 242.832031 222.078125 L 240.925781 221.675781 L 239.976562 221.449219 L 239.5 221.332031 L 239.261719 221.269531 L 239.144531 221.238281 L 239.023438 221.207031 L 238.074219 220.949219 L 237.597656 220.8125 L 237.359375 220.746094 L 237.242188 220.710938 L 237.121094 220.675781 L 236.171875 220.382812 L 235.695312 220.230469 L 235.457031 220.152344 L 235.339844 220.113281 L 235.21875 220.074219 L 233.464844 219.464844 L 232.585938 219.136719 L 232.148438 218.96875 L 231.710938 218.796875 L 229.957031 218.074219 L 229.078125 217.691406 L 228.640625 217.496094 L 228.421875 217.394531 L 228.308594 217.347656 L 228.199219 217.296875 L 226.320312 216.398438 L 225.378906 215.925781 L 224.910156 215.683594 L 224.671875 215.5625 L 224.4375 215.4375 L 222.558594 214.410156 L 221.617188 213.875 L 221.148438 213.601562 L 220.910156 213.460938 L 220.675781 213.320312 L 218.761719 212.144531 L 217.800781 211.53125 L 217.085938 211.0625 L 216.964844 210.984375 L 216.84375 210.902344 L 214.929688 209.59375 L 213.972656 208.914062 L 213.492188 208.566406 L 213.253906 208.394531 L 213.132812 208.304688 L 213.011719 208.21875 L 209.476562 205.5 L 207.707031 204.058594 L 206.824219 203.316406 L 206.382812 202.9375 L 206.160156 202.75 L 206.050781 202.65625 L 205.941406 202.558594 L 198.363281 195.488281 L 191.375 188.046875 L 183.886719 179.078125 L 176.253906 168.894531 L 169.214844 158.5625 L 161.671875 146.492188 L 154.71875 134.449219 L 147.625 121.257812 L 140.027344 106.117188 L 133.019531 91.222656 L 125.507812 74.265625 L 117.855469 55.9375 L 110.796875 38.082031 L 103.230469 17.945312 L 101.640625 13.5 Z M 74.5 13.5 " transform="matrix(1,0,0,1,-74,-13)"/>
<path style="fill:none;stroke-width:1.6;stroke-linecap:square;stroke-linejoin:miter;stroke:rgb(0%,44.444275%,0%);stroke-opacity:1;stroke-miterlimit:3.25;" d="M 101.640625 13.5 L 103.230469 17.945312 L 110.796875 38.082031 L 117.855469 55.9375 L 125.507812 74.265625 L 133.019531 91.222656 L 140.027344 106.117188 L 147.625 121.257812 L 154.71875 134.449219 L 161.671875 146.492188 L 169.214844 158.5625 L 176.253906 168.894531 L 183.886719 179.078125 L 191.375 188.046875 L 198.363281 195.488281 L 205.941406 202.558594 L 206.050781 202.65625 L 206.160156 202.75 L 206.382812 202.9375 L 206.824219 203.316406 L 207.707031 204.058594 L 209.476562 205.5 L 213.011719 208.21875 L 213.132812 208.304688 L 213.253906 208.394531 L 213.492188 208.566406 L 213.972656 208.914062 L 214.929688 209.59375 L 216.84375 210.902344 L 216.964844 210.984375 L 217.085938 211.0625 L 217.800781 211.53125 L 218.761719 212.144531 L 220.675781 213.320312 L 220.910156 213.460938 L 221.148438 213.601562 L 221.617188 213.875 L 222.558594 214.410156 L 224.4375 215.4375 L 224.671875 215.5625 L 224.910156 215.683594 L 225.378906 215.925781 L 226.320312 216.398438 L 228.199219 217.296875 L 228.308594 217.347656 L 228.421875 217.394531 L 228.640625 217.496094 L 229.078125 217.691406 L 229.957031 218.074219 L 231.710938 218.796875 L 232.148438 218.96875 L 232.585938 219.136719 L 233.464844 219.464844 L 235.21875 220.074219 L 235.339844 220.113281 L 235.457031 220.152344 L 235.695312 220.230469 L 236.171875 220.382812 L 237.121094 220.675781 L 237.242188 220.710938 L 237.359375 220.746094 L 237.597656 220.8125 L 238.074219 220.949219 L 239.023438 221.207031 L 239.144531 221.238281 L 239.261719 221.269531 L 239.5 221.332031 L 239.976562 221.449219 L 240.925781 221.675781 L 242.832031 222.078125 L 242.941406 222.097656 L 243.050781 222.121094 L 243.273438 222.160156 L 243.71875 222.242188 L 244.605469 222.390625 L 244.71875 222.410156 L 244.828125 222.429688 L 245.050781 222.460938 L 245.496094 222.527344 L 246.382812 222.652344 L 246.492188 222.664062 L 246.605469 222.679688 L 246.828125 222.707031 L 247.269531 222.757812 L 247.382812 222.769531 L 247.492188 222.785156 L 247.714844 222.808594 L 248.160156 222.851562 L 248.269531 222.863281 L 248.382812 222.875 L 248.601562 222.894531 L 249.046875 222.929688 L 249.160156 222.941406 L 249.269531 222.949219 L 249.9375 222.996094 L 250.042969 223.003906 L 250.152344 223.007812 L 250.371094 223.023438 L 250.480469 223.027344 L 250.589844 223.035156 L 250.804688 223.046875 L 251.023438 223.054688 L 251.242188 223.066406 L 251.460938 223.074219 L 251.675781 223.082031 L 251.785156 223.085938 L 251.894531 223.085938 L 252.222656 223.097656 L 252.332031 223.097656 L 252.4375 223.101562 L 252.546875 223.101562 L 252.65625 223.105469 L 252.765625 223.105469 L 252.875 223.109375 L 254.070312 223.109375 L 254.179688 223.105469 L 254.398438 223.105469 L 254.507812 223.101562 L 254.617188 223.101562 L 254.726562 223.097656 L 254.832031 223.09375 L 254.941406 223.09375 L 255.378906 223.078125 L 255.59375 223.070312 L 256.03125 223.054688 L 256.140625 223.046875 L 256.25 223.042969 L 256.464844 223.03125 L 256.902344 223.007812 L 257.136719 222.992188 L 257.375 222.976562 L 257.847656 222.941406 L 257.964844 222.929688 L 258.082031 222.921875 L 258.320312 222.898438 L 258.789062 222.855469 L 258.910156 222.84375 L 259.261719 222.808594 L 259.734375 222.757812 L 260.679688 222.644531 L 260.796875 222.628906 L 260.917969 222.613281 L 261.152344 222.578125 L 261.625 222.511719 L 262.570312 222.363281 L 262.804688 222.324219 L 263.042969 222.285156 L 263.515625 222.199219 L 264.457031 222.019531 L 264.570312 221.996094 L 264.679688 221.976562 L 264.898438 221.929688 L 265.339844 221.835938 L 266.222656 221.640625 L 266.332031 221.613281 L 266.441406 221.589844 L 266.664062 221.535156 L 267.101562 221.429688 L 267.984375 221.203125 L 268.09375 221.175781 L 268.207031 221.144531 L 268.425781 221.085938 L 268.867188 220.964844 L 269.746094 220.710938 L 271.511719 220.164062 L 271.628906 220.125 L 271.75 220.085938 L 271.988281 220.003906 L 272.464844 219.84375 L 273.421875 219.503906 L 275.332031 218.78125 L 275.453125 218.734375 L 275.570312 218.683594 L 275.808594 218.589844 L 276.289062 218.394531 L 277.242188 217.988281 L 279.152344 217.132812 L 279.273438 217.078125 L 279.390625 217.019531 L 279.625 216.910156 L 280.09375 216.6875 L 281.03125 216.226562 L 282.90625 215.253906 L 286.65625 213.121094 L 287.09375 212.855469 L 287.53125 212.585938 L 288.40625 212.039062 L 290.15625 210.902344 L 293.65625 208.460938 L 293.777344 208.371094 L 293.894531 208.285156 L 294.132812 208.109375 L 294.605469 207.757812 L 295.554688 207.042969 L 297.453125 205.558594 L 301.246094 202.398438 L 308.332031 195.792969 L 315.277344 188.433594 L 322.8125 179.457031 L 329.847656 170.152344 L 337.46875 159.046875 L 344.585938 147.726562 L 351.566406 135.730469 L 359.136719 121.722656 L 366.199219 107.707031 L 373.855469 91.492188 L 381.371094 74.542969 L 388.382812 57.800781 L 395.988281 38.640625 L 403.085938 19.804688 L 405.351562 13.5 " transform="matrix(1,0,0,1,-74,-13)"/>
<path style="fill:none;stroke-width:0.2;stroke-linecap:butt;stroke-linejoin:miter;stroke:rgb(39.99939%,39.99939%,39.99939%);stroke-opacity:1;stroke-miterlimit:3.25;" d="M 74.5 223.109375 L 432.5 223.109375 " transform="matrix(1,0,0,1,-74,-13)"/>
<path style="fill:none;stroke-width:0.2;stroke-linecap:butt;stroke-linejoin:miter;stroke:rgb(39.99939%,39.99939%,39.99939%);stroke-opacity:1;stroke-miterlimit:3.25;" d="M 74.5 234.757812 L 74.5 13.5 " transform="matrix(1,0,0,1,-74,-13)"/>
</g>
</svg>
