<?xml version="1.0" encoding="UTF-8"?>
<svg xmlns="http://www.w3.org/2000/svg" xmlns:xlink="http://www.w3.org/1999/xlink" width="359pt" height="222pt" viewBox="0 0 359 222" version="1.1">
<g id="surface372">
<path style="fill:none;stroke-width:1.6;stroke-linecap:square;stroke-linejoin:miter;stroke:rgb(0%,0%,0%);stroke-opacity:1;stroke-miterlimit:3.25;" d="M 110.300781 191.085938 L 396.699219 191.085938 " transform="matrix(1,0,0,1,-74,-13)"/>
<path style="fill:none;stroke-width:1.6;stroke-linecap:square;stroke-linejoin:miter;stroke:rgb(0%,0%,0%);stroke-opacity:1;stroke-miterlimit:3.25;" d="M 110.300781 172.457031 L 396.699219 172.457031 " transform="matrix(1,0,0,1,-74,-13)"/>
<path style="fill:none;stroke-width:1.6;stroke-linecap:square;stroke-linejoin:miter;stroke:rgb(0%,0%,0%);stroke-opacity:1;stroke-miterlimit:3.25;" d="M 110.300781 156.152344 L 396.699219 156.152344 " transform="matrix(1,0,0,1,-74,-13)"/>
<path style="fill:none;stroke-width:1.6;stroke-linecap:square;stroke-linejoin:miter;stroke:rgb(0%,0%,0%);stroke-opacity:1;stroke-miterlimit:3.25;" d="M 110.300781 142.179688 L 396.699219 142.179688 " transform="matrix(1,0,0,1,-74,-13)"/>
<path style="fill:none;stroke-width:1.6;stroke-linecap:square;stroke-linejoin:miter;stroke:rgb(0%,0%,0%);stroke-opacity:1;stroke-miterlimit:3.25;" d="M 123.449219 13.5 L 127.707031 28.8125 L 133.285156 47.710938 L 139.335938 66.929688 L 144.984375 83.6875 L 151.105469 100.601562 L 157.117188 115.976562 L 162.722656 129.246094 L 168.800781 142.503906 L 174.472656 153.839844 L 180.035156 164.011719 L 186.070312 174.019531 L 191.703125 182.425781 L 197.808594 190.546875 L 203.800781 197.554688 L 209.390625 203.253906 L 215.453125 208.558594 L 215.539062 208.628906 L 215.628906 208.703125 L 215.804688 208.84375 L 216.160156 209.121094 L 216.867188 209.667969 L 218.28125 210.730469 L 221.109375 212.714844 L 221.207031 212.78125 L 221.300781 212.84375 L 221.492188 212.972656 L 221.875 213.222656 L 222.644531 213.714844 L 224.175781 214.65625 L 224.273438 214.714844 L 224.367188 214.773438 L 224.558594 214.886719 L 224.941406 215.109375 L 225.707031 215.546875 L 227.242188 216.386719 L 227.335938 216.4375 L 227.429688 216.484375 L 227.617188 216.585938 L 227.992188 216.777344 L 228.746094 217.160156 L 230.25 217.882812 L 230.4375 217.96875 L 230.628906 218.054688 L 231.003906 218.222656 L 231.753906 218.554688 L 233.261719 219.179688 L 233.347656 219.214844 L 233.4375 219.25 L 233.613281 219.316406 L 233.960938 219.453125 L 234.664062 219.71875 L 236.066406 220.214844 L 236.15625 220.246094 L 236.242188 220.273438 L 236.769531 220.449219 L 237.472656 220.671875 L 238.875 221.089844 L 238.972656 221.117188 L 239.066406 221.140625 L 239.257812 221.195312 L 239.636719 221.296875 L 240.398438 221.496094 L 240.492188 221.519531 L 240.589844 221.542969 L 240.777344 221.589844 L 241.160156 221.679688 L 241.921875 221.851562 L 242.015625 221.875 L 242.109375 221.894531 L 242.300781 221.9375 L 242.679688 222.015625 L 243.441406 222.167969 L 243.539062 222.183594 L 243.632812 222.203125 L 243.824219 222.238281 L 244.203125 222.304688 L 244.964844 222.433594 L 245.054688 222.449219 L 245.140625 222.460938 L 245.320312 222.488281 L 245.675781 222.542969 L 246.386719 222.640625 L 246.472656 222.652344 L 246.742188 222.6875 L 247.097656 222.730469 L 247.804688 222.8125 L 247.894531 222.820312 L 247.984375 222.832031 L 248.160156 222.847656 L 248.515625 222.882812 L 248.695312 222.898438 L 248.871094 222.914062 L 249.226562 222.941406 L 249.40625 222.957031 L 249.582031 222.96875 L 249.9375 222.996094 L 250.027344 223 L 250.117188 223.007812 L 250.292969 223.015625 L 250.648438 223.035156 L 250.734375 223.042969 L 250.824219 223.046875 L 251.082031 223.058594 L 251.171875 223.0625 L 251.34375 223.070312 L 251.433594 223.070312 L 251.519531 223.074219 L 251.695312 223.082031 L 251.78125 223.085938 L 251.867188 223.085938 L 252.042969 223.089844 L 252.214844 223.097656 L 252.304688 223.097656 L 252.390625 223.101562 L 252.5625 223.101562 L 252.652344 223.105469 L 252.824219 223.105469 L 252.914062 223.109375 L 254.132812 223.109375 L 254.21875 223.105469 L 254.394531 223.105469 L 254.480469 223.101562 L 254.566406 223.101562 L 254.652344 223.097656 L 254.828125 223.09375 L 254.914062 223.09375 L 255.003906 223.089844 L 255.175781 223.085938 L 255.261719 223.082031 L 255.351562 223.082031 L 255.523438 223.074219 L 255.613281 223.070312 L 255.699219 223.066406 L 255.875 223.058594 L 256.222656 223.042969 L 256.410156 223.035156 L 256.597656 223.023438 L 256.976562 223.003906 L 257.070312 222.996094 L 257.164062 222.992188 L 257.355469 222.976562 L 257.734375 222.949219 L 257.828125 222.941406 L 257.921875 222.9375 L 258.109375 222.921875 L 259.246094 222.816406 L 259.339844 222.804688 L 259.433594 222.796875 L 259.621094 222.777344 L 260 222.734375 L 260.753906 222.640625 L 260.851562 222.628906 L 261.132812 222.59375 L 261.511719 222.539062 L 262.265625 222.429688 L 262.355469 222.417969 L 262.441406 222.402344 L 262.621094 222.375 L 262.972656 222.316406 L 263.675781 222.195312 L 265.089844 221.929688 L 265.175781 221.914062 L 265.265625 221.894531 L 265.441406 221.859375 L 265.792969 221.785156 L 266.5 221.632812 L 267.910156 221.300781 L 268.003906 221.277344 L 268.101562 221.253906 L 268.289062 221.207031 L 268.671875 221.109375 L 269.4375 220.90625 L 270.964844 220.472656 L 271.0625 220.445312 L 271.15625 220.417969 L 271.347656 220.359375 L 271.730469 220.246094 L 272.496094 220.007812 L 274.023438 219.503906 L 274.117188 219.472656 L 274.210938 219.4375 L 274.398438 219.375 L 275.523438 218.976562 L 277.023438 218.414062 L 280.027344 217.191406 L 280.113281 217.152344 L 280.203125 217.117188 L 280.375 217.039062 L 280.726562 216.886719 L 281.425781 216.578125 L 282.824219 215.9375 L 285.625 214.574219 L 291.699219 211.269531 L 297.367188 207.769531 L 302.921875 203.980469 L 308.953125 199.5 L 314.578125 195 L 320.675781 189.804688 L 326.371094 184.683594 L 331.953125 179.441406 L 338.007812 173.539062 L 343.660156 167.851562 L 349.785156 161.53125 L 355.796875 155.195312 L 361.40625 149.203125 L 367.488281 142.640625 L 373.167969 136.488281 L 378.734375 130.457031 L 384.773438 123.949219 L 390.410156 117.933594 L 390.605469 117.722656 L 390.800781 117.515625 L 391.195312 117.097656 L 391.980469 116.265625 L 393.554688 114.609375 L 393.652344 114.507812 L 393.75 114.402344 L 393.949219 114.195312 L 394.339844 113.785156 L 395.128906 112.960938 L 395.226562 112.855469 L 395.324219 112.753906 L 395.519531 112.546875 L 395.914062 112.136719 L 396.109375 111.933594 L 396.308594 111.726562 L 396.699219 111.320312 " transform="matrix(1,0,0,1,-74,-13)"/>
<path style="fill-rule:nonzero;fill:rgb(99.998474%,99.998474%,99.998474%);fill-opacity:1;stroke-width:0.03;stroke-linecap:square;stroke-linejoin:miter;stroke:rgb(99.998474%,99.998474%,99.998474%);stroke-opacity:1;stroke-miterlimit:3.25;" d="M 74.5 13.5 L 74.5 223.109375 L 432.5 223.109375 L 432.5 77.546875 L 432.378906 77.648438 L 432.253906 77.746094 L 432.132812 77.847656 L 432.007812 77.949219 L 431.761719 78.148438 L 431.640625 78.25 L 431.515625 78.351562 L 431.027344 78.757812 L 430.78125 78.960938 L 430.65625 79.0625 L 430.535156 79.164062 L 429.550781 79.984375 L 428.8125 80.605469 L 428.691406 80.710938 L 428.566406 80.8125 L 426.601562 82.496094 L 425.621094 83.351562 L 424.882812 83.996094 L 424.757812 84.101562 L 424.636719 84.210938 L 417.59375 90.597656 L 410.042969 97.8125 L 403.085938 104.753906 L 395.988281 112.0625 L 388.382812 120.085938 L 381.371094 127.609375 L 373.855469 135.742188 L 366.199219 144.035156 L 359.136719 151.636719 L 351.566406 159.667969 L 344.585938 166.90625 L 337.46875 174.074219 L 329.847656 181.445312 L 322.8125 187.910156 L 315.277344 194.417969 L 308.332031 199.976562 L 301.246094 205.160156 L 293.65625 210.101562 L 290.15625 212.152344 L 288.40625 213.117188 L 287.09375 213.820312 L 286.875 213.933594 L 286.765625 213.988281 L 286.65625 214.046875 L 282.90625 215.898438 L 281.03125 216.753906 L 280.09375 217.164062 L 279.625 217.363281 L 279.390625 217.460938 L 279.273438 217.511719 L 279.152344 217.558594 L 277.242188 218.328125 L 276.289062 218.691406 L 275.808594 218.871094 L 275.570312 218.957031 L 275.453125 219 L 275.332031 219.042969 L 273.421875 219.707031 L 272.464844 220.015625 L 271.75 220.238281 L 271.628906 220.277344 L 271.511719 220.3125 L 269.746094 220.820312 L 268.867188 221.058594 L 268.425781 221.171875 L 268.207031 221.226562 L 268.09375 221.253906 L 267.984375 221.28125 L 266.222656 221.691406 L 265.339844 221.878906 L 264.898438 221.96875 L 264.679688 222.011719 L 264.570312 222.03125 L 264.457031 222.054688 L 263.515625 222.226562 L 263.042969 222.304688 L 262.804688 222.34375 L 262.570312 222.382812 L 261.625 222.523438 L 261.152344 222.589844 L 260.917969 222.621094 L 260.796875 222.636719 L 260.679688 222.652344 L 259.734375 222.765625 L 259.261719 222.8125 L 258.910156 222.847656 L 258.789062 222.859375 L 258.320312 222.902344 L 258.082031 222.921875 L 257.964844 222.933594 L 257.847656 222.941406 L 257.375 222.976562 L 257.136719 222.992188 L 256.902344 223.007812 L 256.464844 223.03125 L 256.25 223.042969 L 256.140625 223.046875 L 256.03125 223.054688 L 255.59375 223.070312 L 255.378906 223.078125 L 254.941406 223.09375 L 254.832031 223.09375 L 254.726562 223.097656 L 254.617188 223.101562 L 254.507812 223.101562 L 254.398438 223.105469 L 254.179688 223.105469 L 254.070312 223.109375 L 252.875 223.109375 L 252.765625 223.105469 L 252.65625 223.105469 L 252.546875 223.101562 L 252.4375 223.101562 L 252.332031 223.097656 L 252.222656 223.097656 L 251.894531 223.085938 L 251.785156 223.085938 L 251.675781 223.082031 L 251.460938 223.074219 L 251.242188 223.066406 L 251.023438 223.054688 L 250.914062 223.050781 L 250.804688 223.042969 L 250.589844 223.035156 L 250.371094 223.019531 L 250.152344 223.007812 L 250.042969 223 L 249.9375 222.996094 L 249.492188 222.964844 L 249.269531 222.945312 L 249.160156 222.9375 L 249.046875 222.929688 L 248.601562 222.890625 L 248.382812 222.871094 L 248.269531 222.859375 L 248.160156 222.847656 L 247.492188 222.777344 L 247.382812 222.765625 L 247.269531 222.753906 L 246.828125 222.699219 L 246.605469 222.671875 L 246.492188 222.65625 L 246.382812 222.640625 L 245.496094 222.515625 L 244.828125 222.410156 L 244.71875 222.394531 L 244.605469 222.375 L 243.71875 222.21875 L 243.050781 222.089844 L 242.941406 222.066406 L 242.832031 222.046875 L 241.878906 221.84375 L 241.402344 221.738281 L 241.164062 221.679688 L 241.046875 221.652344 L 240.925781 221.625 L 239.976562 221.386719 L 239.5 221.261719 L 239.261719 221.195312 L 239.144531 221.164062 L 239.023438 221.128906 L 238.074219 220.855469 L 237.597656 220.710938 L 237.359375 220.636719 L 237.242188 220.601562 L 237.121094 220.5625 L 236.171875 220.25 L 235.457031 220.003906 L 235.339844 219.960938 L 235.21875 219.917969 L 233.464844 219.261719 L 232.585938 218.90625 L 232.148438 218.722656 L 231.710938 218.535156 L 229.957031 217.742188 L 229.078125 217.320312 L 228.640625 217.105469 L 228.421875 216.996094 L 228.308594 216.941406 L 228.199219 216.882812 L 226.320312 215.890625 L 225.378906 215.363281 L 224.910156 215.089844 L 224.671875 214.953125 L 224.4375 214.8125 L 222.558594 213.660156 L 221.617188 213.050781 L 221.148438 212.742188 L 220.910156 212.582031 L 220.675781 212.425781 L 218.761719 211.082031 L 217.800781 210.378906 L 217.324219 210.019531 L 217.085938 209.835938 L 216.964844 209.746094 L 216.84375 209.652344 L 214.929688 208.136719 L 213.972656 207.347656 L 213.492188 206.941406 L 213.253906 206.738281 L 213.132812 206.636719 L 213.011719 206.53125 L 209.476562 203.335938 L 207.707031 201.621094 L 206.824219 200.734375 L 206.382812 200.285156 L 206.160156 200.058594 L 206.050781 199.941406 L 205.941406 199.828125 L 202.152344 195.71875 L 200.257812 193.523438 L 199.308594 192.390625 L 198.835938 191.816406 L 198.597656 191.527344 L 198.480469 191.378906 L 198.363281 191.234375 L 191.375 181.960938 L 183.886719 170.515625 L 176.253906 157.199219 L 169.214844 143.367188 L 161.671875 126.839844 L 154.71875 109.984375 L 147.625 91.136719 L 140.027344 69.035156 L 133.019531 46.835938 L 125.507812 21.046875 L 123.476562 13.5 Z M 74.5 13.5 " transform="matrix(1,0,0,1,-74,-13)"/>
<path style="fill:none;stroke-width:1.6;stroke-linecap:square;stroke-linejoin:miter;stroke:rgb(39.99939%,26.66626%,13.33313%);stroke-opacity:1;stroke-miterlimit:3.25;" d="M 123.476562 13.5 L 125.507812 21.046875 L 133.019531 46.835938 L 140.027344 69.035156 L 147.625 91.136719 L 154.71875 109.984375 L 161.671875 126.839844 L 169.214844 143.367188 L 176.253906 157.199219 L 183.886719 170.515625 L 191.375 181.960938 L 198.363281 191.234375 L 198.480469 191.378906 L 198.597656 191.527344 L 198.835938 191.816406 L 199.308594 192.390625 L 200.257812 193.523438 L 202.152344 195.71875 L 205.941406 199.828125 L 206.050781 199.941406 L 206.160156 200.058594 L 206.382812 200.285156 L 206.824219 200.734375 L 207.707031 201.621094 L 209.476562 203.335938 L 213.011719 206.53125 L 213.132812 206.636719 L 213.253906 206.738281 L 213.492188 206.941406 L 213.972656 207.347656 L 214.929688 208.136719 L 216.84375 209.652344 L 216.964844 209.746094 L 217.085938 209.835938 L 217.324219 210.019531 L 217.800781 210.378906 L 218.761719 211.082031 L 220.675781 212.425781 L 220.910156 212.582031 L 221.148438 212.742188 L 221.617188 213.050781 L 222.558594 213.660156 L 224.4375 214.8125 L 224.671875 214.953125 L 224.910156 215.089844 L 225.378906 215.363281 L 226.320312 215.890625 L 228.199219 216.882812 L 228.308594 216.941406 L 228.421875 216.996094 L 228.640625 217.105469 L 229.078125 217.320312 L 229.957031 217.742188 L 231.710938 218.535156 L 232.148438 218.722656 L 232.585938 218.90625 L 233.464844 219.261719 L 235.21875 219.917969 L 235.339844 219.960938 L 235.457031 220.003906 L 236.171875 220.25 L 237.121094 220.5625 L 237.242188 220.601562 L 237.359375 220.636719 L 237.597656 220.710938 L 238.074219 220.855469 L 239.023438 221.128906 L 239.144531 221.164062 L 239.261719 221.195312 L 239.5 221.261719 L 239.976562 221.386719 L 240.925781 221.625 L 241.046875 221.652344 L 241.164062 221.679688 L 241.402344 221.738281 L 241.878906 221.84375 L 242.832031 222.046875 L 242.941406 222.066406 L 243.050781 222.089844 L 243.71875 222.21875 L 244.605469 222.375 L 244.71875 222.394531 L 244.828125 222.410156 L 245.496094 222.515625 L 246.382812 222.640625 L 246.492188 222.65625 L 246.605469 222.671875 L 246.828125 222.699219 L 247.269531 222.753906 L 247.382812 222.765625 L 247.492188 222.777344 L 248.160156 222.847656 L 248.269531 222.859375 L 248.382812 222.871094 L 248.601562 222.890625 L 249.046875 222.929688 L 249.160156 222.9375 L 249.269531 222.945312 L 249.492188 222.964844 L 249.9375 222.996094 L 250.042969 223 L 250.152344 223.007812 L 250.371094 223.019531 L 250.589844 223.035156 L 250.804688 223.042969 L 250.914062 223.050781 L 251.023438 223.054688 L 251.242188 223.066406 L 251.460938 223.074219 L 251.675781 223.082031 L 251.785156 223.085938 L 251.894531 223.085938 L 252.222656 223.097656 L 252.332031 223.097656 L 252.4375 223.101562 L 252.546875 223.101562 L 252.65625 223.105469 L 252.765625 223.105469 L 252.875 223.109375 L 254.070312 223.109375 L 254.179688 223.105469 L 254.398438 223.105469 L 254.507812 223.101562 L 254.617188 223.101562 L 254.726562 223.097656 L 254.832031 223.09375 L 254.941406 223.09375 L 255.378906 223.078125 L 255.59375 223.070312 L 256.03125 223.054688 L 256.140625 223.046875 L 256.25 223.042969 L 256.464844 223.03125 L 256.902344 223.007812 L 257.136719 222.992188 L 257.375 222.976562 L 257.847656 222.941406 L 257.964844 222.933594 L 258.082031 222.921875 L 258.320312 222.902344 L 258.789062 222.859375 L 258.910156 222.847656 L 259.261719 222.8125 L 259.734375 222.765625 L 260.679688 222.652344 L 260.796875 222.636719 L 260.917969 222.621094 L 261.152344 222.589844 L 261.625 222.523438 L 262.570312 222.382812 L 262.804688 222.34375 L 263.042969 222.304688 L 263.515625 222.226562 L 264.457031 222.054688 L 264.570312 222.03125 L 264.679688 222.011719 L 264.898438 221.96875 L 265.339844 221.878906 L 266.222656 221.691406 L 267.984375 221.28125 L 268.09375 221.253906 L 268.207031 221.226562 L 268.425781 221.171875 L 268.867188 221.058594 L 269.746094 220.820312 L 271.511719 220.3125 L 271.628906 220.277344 L 271.75 220.238281 L 272.464844 220.015625 L 273.421875 219.707031 L 275.332031 219.042969 L 275.453125 219 L 275.570312 218.957031 L 275.808594 218.871094 L 276.289062 218.691406 L 277.242188 218.328125 L 279.152344 217.558594 L 279.273438 217.511719 L 279.390625 217.460938 L 279.625 217.363281 L 280.09375 217.164062 L 281.03125 216.753906 L 282.90625 215.898438 L 286.65625 214.046875 L 286.765625 213.988281 L 286.875 213.933594 L 287.09375 213.820312 L 288.40625 213.117188 L 290.15625 212.152344 L 293.65625 210.101562 L 301.246094 205.160156 L 308.332031 199.976562 L 315.277344 194.417969 L 322.8125 187.910156 L 329.847656 181.445312 L 337.46875 174.074219 L 344.585938 166.90625 L 351.566406 159.667969 L 359.136719 151.636719 L 366.199219 144.035156 L 373.855469 135.742188 L 381.371094 127.609375 L 388.382812 120.085938 L 395.988281 112.0625 L 403.085938 104.753906 L 410.042969 97.8125 L 417.59375 90.597656 L 424.636719 84.210938 L 424.757812 84.101562 L 424.882812 83.996094 L 425.621094 83.351562 L 426.601562 82.496094 L 428.566406 80.8125 L 428.691406 80.710938 L 428.8125 80.605469 L 429.550781 79.984375 L 430.535156 79.164062 L 430.65625 79.0625 L 430.78125 78.960938 L 431.027344 78.757812 L 431.515625 78.351562 L 431.640625 78.25 L 431.761719 78.148438 L 432.007812 77.949219 L 432.132812 77.847656 L 432.253906 77.746094 L 432.378906 77.648438 L 432.5 77.546875 " transform="matrix(1,0,0,1,-74,-13)"/>
<path style="fill:none;stroke-width:0.2;stroke-linecap:butt;stroke-linejoin:miter;stroke:rgb(39.99939%,39.99939%,39.99939%);stroke-opacity:1;stroke-miterlimit:3.25;" d="M 74.5 223.109375 L 432.5 223.109375 " transform="matrix(1,0,0,1,-74,-13)"/>
<path style="fill:none;stroke-width:0.2;stroke-linecap:butt;stroke-linejoin:miter;stroke:rgb(39.99939%,39.99939%,39.99939%);stroke-opacity:1;stroke-miterlimit:3.25;" d="M 74.5 234.757812 L 74.5 13.5 " transform="matrix(1,0,0,1,-74,-13)"/>
</g>
</svg>
