<?xml version="1.0" encoding="UTF-8"?>
<svg xmlns="http://www.w3.org/2000/svg" xmlns:xlink="http://www.w3.org/1999/xlink" width="358pt" height="112pt" viewBox="0 0 358 112" version="1.1">
<defs>
<clipPath id="clip1">
  <path d="M 1 5 L 172 5 L 172 106 L 1 106 Z M 1 5 "/>
</clipPath>
<clipPath id="clip2">
  <path d="M 6 5 L 167 5 L 167 112 L 6 112 Z M 6 5 "/>
</clipPath>
<clipPath id="clip3">
  <path d="M 202 5 L 348 5 L 348 112 L 202 112 Z M 202 5 "/>
</clipPath>
<clipPath id="clip4">
  <path d="M 202 5 L 358 5 L 358 112 L 202 112 Z M 202 5 "/>
</clipPath>
</defs>
<g id="surface358">
<path style="fill:none;stroke-width:1.6;stroke-linecap:square;stroke-linejoin:miter;stroke:rgb(0%,0%,0%);stroke-opacity:1;stroke-miterlimit:3.25;" d="M 92.164062 101.953125 L 228.542969 101.953125 " transform="matrix(1,0,0,1,-74,-13)"/>
<path style="fill:none;stroke-width:1.6;stroke-linecap:square;stroke-linejoin:miter;stroke:rgb(0%,0%,0%);stroke-opacity:1;stroke-miterlimit:3.25;" d="M 92.164062 90.863281 L 228.542969 90.863281 " transform="matrix(1,0,0,1,-74,-13)"/>
<path style="fill:none;stroke-width:1.6;stroke-linecap:square;stroke-linejoin:miter;stroke:rgb(0%,0%,0%);stroke-opacity:1;stroke-miterlimit:3.25;" d="M 92.164062 79.773438 L 228.542969 79.773438 " transform="matrix(1,0,0,1,-74,-13)"/>
<path style="fill:none;stroke-width:1.6;stroke-linecap:square;stroke-linejoin:miter;stroke:rgb(0%,0%,0%);stroke-opacity:1;stroke-miterlimit:3.25;" d="M 92.164062 68.683594 L 228.542969 68.683594 " transform="matrix(1,0,0,1,-74,-13)"/>
<path style=" stroke:none;fill-rule:nonzero;fill:rgb(99.998474%,99.998474%,99.998474%);fill-opacity:1;" d="M 1.117188 5.777344 L 1.117188 105.589844 L 171.589844 105.589844 L 171.589844 5.777344 L 158.664062 5.777344 L 157.585938 8.777344 L 154.203125 17.746094 L 150.585938 26.871094 L 147.246094 34.84375 L 143.667969 42.914062 L 140.019531 50.636719 L 136.65625 57.308594 L 133.050781 63.980469 L 129.730469 69.691406 L 126.339844 75.082031 L 122.710938 80.371094 L 119.359375 84.800781 L 115.773438 89.078125 L 112.464844 92.582031 L 109.089844 95.726562 L 107.285156 97.230469 L 106.378906 97.9375 L 105.929688 98.277344 L 105.703125 98.445312 L 105.589844 98.53125 L 105.535156 98.570312 L 105.476562 98.613281 L 103.808594 99.773438 L 102.976562 100.316406 L 102.5625 100.578125 L 102.351562 100.707031 L 102.25 100.769531 L 102.195312 100.800781 L 102.144531 100.832031 L 100.359375 101.847656 L 99.464844 102.308594 L 99.019531 102.53125 L 98.792969 102.636719 L 98.683594 102.6875 L 98.625 102.714844 L 98.570312 102.742188 L 97.660156 103.148438 L 97.207031 103.34375 L 96.980469 103.4375 L 96.863281 103.480469 L 96.808594 103.503906 L 96.75 103.527344 L 95.839844 103.871094 L 95.386719 104.03125 L 95.046875 104.148438 L 94.929688 104.1875 L 94.09375 104.445312 L 93.671875 104.566406 L 93.460938 104.625 L 93.355469 104.652344 L 93.304688 104.667969 L 93.253906 104.679688 L 92.832031 104.789062 L 92.621094 104.839844 L 92.519531 104.863281 L 92.464844 104.875 L 92.414062 104.890625 L 91.992188 104.984375 L 91.78125 105.027344 L 91.679688 105.046875 L 91.625 105.058594 L 91.574219 105.070312 L 91.125 105.15625 L 90.785156 105.214844 L 90.730469 105.222656 L 90.671875 105.234375 L 90.222656 105.304688 L 90 105.335938 L 89.886719 105.351562 L 89.832031 105.359375 L 89.773438 105.367188 L 89.324219 105.421875 L 89.097656 105.445312 L 88.988281 105.457031 L 88.929688 105.460938 L 88.875 105.46875 L 88.648438 105.488281 L 88.535156 105.5 L 88.425781 105.507812 L 88.085938 105.53125 L 87.976562 105.539062 L 87.765625 105.550781 L 87.664062 105.554688 L 87.613281 105.558594 L 87.558594 105.5625 L 87.457031 105.566406 L 87.40625 105.566406 L 87.351562 105.570312 L 87.25 105.574219 L 87.195312 105.574219 L 87.144531 105.578125 L 87.042969 105.582031 L 86.886719 105.582031 L 86.835938 105.585938 L 86.628906 105.585938 L 86.574219 105.589844 L 86.109375 105.589844 L 86.058594 105.585938 L 85.851562 105.585938 L 85.796875 105.582031 L 85.695312 105.582031 L 85.640625 105.578125 L 85.539062 105.578125 L 85.488281 105.574219 L 85.382812 105.570312 L 85.332031 105.570312 L 85.28125 105.566406 L 85.175781 105.5625 L 85.125 105.558594 L 85.070312 105.558594 L 84.96875 105.550781 L 84.917969 105.550781 L 84.863281 105.546875 L 84.761719 105.539062 L 84.710938 105.539062 L 84.65625 105.535156 L 84.339844 105.511719 L 84.289062 105.507812 L 84.234375 105.503906 L 84.023438 105.484375 L 83.917969 105.476562 L 83.863281 105.472656 L 83.8125 105.464844 L 83.601562 105.445312 L 83.496094 105.433594 L 83.441406 105.425781 L 83.390625 105.421875 L 83.175781 105.394531 L 83.070312 105.382812 L 83.019531 105.375 L 82.964844 105.371094 L 82.542969 105.3125 L 82.226562 105.265625 L 82.171875 105.253906 L 82.121094 105.246094 L 81.695312 105.175781 L 81.378906 105.117188 L 81.328125 105.105469 L 81.273438 105.097656 L 80.367188 104.90625 L 79.6875 104.742188 L 79.574219 104.710938 L 79.519531 104.699219 L 79.460938 104.683594 L 78.78125 104.496094 L 78.667969 104.460938 L 78.613281 104.445312 L 78.554688 104.429688 L 77.875 104.21875 L 77.761719 104.179688 L 77.707031 104.160156 L 77.648438 104.144531 L 76.816406 103.851562 L 76.398438 103.695312 L 76.1875 103.617188 L 76.082031 103.574219 L 75.980469 103.535156 L 75.144531 103.191406 L 74.726562 103.007812 L 74.515625 102.914062 L 74.414062 102.867188 L 74.359375 102.84375 L 74.308594 102.820312 L 73.410156 102.394531 L 72.964844 102.167969 L 72.738281 102.050781 L 72.628906 101.992188 L 72.570312 101.964844 L 72.515625 101.933594 L 71.621094 101.445312 L 71.171875 101.191406 L 70.949219 101.058594 L 70.835938 100.996094 L 70.726562 100.925781 L 69.8125 100.367188 L 69.355469 100.074219 L 69.015625 99.851562 L 68.957031 99.8125 L 68.898438 99.777344 L 67.988281 99.152344 L 67.53125 98.828125 L 67.191406 98.582031 L 67.074219 98.496094 L 65.390625 97.203125 L 64.550781 96.515625 L 64.128906 96.164062 L 63.8125 95.894531 L 63.761719 95.847656 L 63.707031 95.800781 L 60.097656 92.4375 L 56.773438 88.890625 L 53.207031 84.621094 L 49.570312 79.773438 L 46.21875 74.851562 L 42.628906 69.105469 L 39.316406 63.371094 L 35.9375 57.089844 L 32.320312 49.878906 L 28.984375 42.785156 L 25.40625 34.710938 L 21.765625 25.984375 L 18.402344 17.480469 L 14.800781 7.890625 L 14.042969 5.777344 Z M 1.117188 5.777344 "/>
<g clip-path="url(#clip1)" clip-rule="nonzero">
<path style="fill:none;stroke-width:0.03;stroke-linecap:square;stroke-linejoin:miter;stroke:rgb(99.998474%,99.998474%,99.998474%);stroke-opacity:1;stroke-miterlimit:3.25;" d="M 75.117188 18.777344 L 75.117188 118.589844 L 245.589844 118.589844 L 245.589844 18.777344 L 232.664062 18.777344 L 231.585938 21.777344 L 228.203125 30.746094 L 224.585938 39.871094 L 221.246094 47.84375 L 217.667969 55.914062 L 214.019531 63.636719 L 210.65625 70.308594 L 207.050781 76.980469 L 203.730469 82.691406 L 200.339844 88.082031 L 196.710938 93.371094 L 193.359375 97.800781 L 189.773438 102.078125 L 186.464844 105.582031 L 183.089844 108.726562 L 181.285156 110.230469 L 180.378906 110.9375 L 179.929688 111.277344 L 179.703125 111.445312 L 179.589844 111.53125 L 179.535156 111.570312 L 179.476562 111.613281 L 177.808594 112.773438 L 176.976562 113.316406 L 176.5625 113.578125 L 176.351562 113.707031 L 176.25 113.769531 L 176.195312 113.800781 L 176.144531 113.832031 L 174.359375 114.847656 L 173.464844 115.308594 L 173.019531 115.53125 L 172.792969 115.636719 L 172.683594 115.6875 L 172.625 115.714844 L 172.570312 115.742188 L 171.660156 116.148438 L 171.207031 116.34375 L 170.980469 116.4375 L 170.863281 116.480469 L 170.808594 116.503906 L 170.75 116.527344 L 169.839844 116.871094 L 169.386719 117.03125 L 169.046875 117.148438 L 168.929688 117.1875 L 168.09375 117.445312 L 167.671875 117.566406 L 167.460938 117.625 L 167.355469 117.652344 L 167.304688 117.667969 L 167.253906 117.679688 L 166.832031 117.789062 L 166.621094 117.839844 L 166.519531 117.863281 L 166.464844 117.875 L 166.414062 117.890625 L 165.992188 117.984375 L 165.78125 118.027344 L 165.679688 118.046875 L 165.625 118.058594 L 165.574219 118.070312 L 165.125 118.15625 L 164.785156 118.214844 L 164.730469 118.222656 L 164.671875 118.234375 L 164.222656 118.304688 L 164 118.335938 L 163.886719 118.351562 L 163.832031 118.359375 L 163.773438 118.367188 L 163.324219 118.421875 L 163.097656 118.445312 L 162.988281 118.457031 L 162.929688 118.460938 L 162.875 118.46875 L 162.648438 118.488281 L 162.535156 118.5 L 162.425781 118.507812 L 162.085938 118.53125 L 161.976562 118.539062 L 161.765625 118.550781 L 161.664062 118.554688 L 161.613281 118.558594 L 161.558594 118.5625 L 161.457031 118.566406 L 161.40625 118.566406 L 161.351562 118.570312 L 161.25 118.574219 L 161.195312 118.574219 L 161.144531 118.578125 L 161.042969 118.582031 L 160.886719 118.582031 L 160.835938 118.585938 L 160.628906 118.585938 L 160.574219 118.589844 L 160.109375 118.589844 L 160.058594 118.585938 L 159.851562 118.585938 L 159.796875 118.582031 L 159.695312 118.582031 L 159.640625 118.578125 L 159.539062 118.578125 L 159.488281 118.574219 L 159.382812 118.570312 L 159.332031 118.570312 L 159.28125 118.566406 L 159.175781 118.5625 L 159.125 118.558594 L 159.070312 118.558594 L 158.96875 118.550781 L 158.917969 118.550781 L 158.863281 118.546875 L 158.761719 118.539062 L 158.710938 118.539062 L 158.65625 118.535156 L 158.339844 118.511719 L 158.289062 118.507812 L 158.234375 118.503906 L 158.023438 118.484375 L 157.917969 118.476562 L 157.863281 118.472656 L 157.8125 118.464844 L 157.601562 118.445312 L 157.496094 118.433594 L 157.441406 118.425781 L 157.390625 118.421875 L 157.175781 118.394531 L 157.070312 118.382812 L 157.019531 118.375 L 156.964844 118.371094 L 156.542969 118.3125 L 156.226562 118.265625 L 156.171875 118.253906 L 156.121094 118.246094 L 155.695312 118.175781 L 155.378906 118.117188 L 155.328125 118.105469 L 155.273438 118.097656 L 154.367188 117.90625 L 153.6875 117.742188 L 153.574219 117.710938 L 153.519531 117.699219 L 153.460938 117.683594 L 152.78125 117.496094 L 152.667969 117.460938 L 152.613281 117.445312 L 152.554688 117.429688 L 151.875 117.21875 L 151.761719 117.179688 L 151.707031 117.160156 L 151.648438 117.144531 L 150.816406 116.851562 L 150.398438 116.695312 L 150.1875 116.617188 L 150.082031 116.574219 L 149.980469 116.535156 L 149.144531 116.191406 L 148.726562 116.007812 L 148.515625 115.914062 L 148.414062 115.867188 L 148.359375 115.84375 L 148.308594 115.820312 L 147.410156 115.394531 L 146.964844 115.167969 L 146.738281 115.050781 L 146.628906 114.992188 L 146.570312 114.964844 L 146.515625 114.933594 L 145.621094 114.445312 L 145.171875 114.191406 L 144.949219 114.058594 L 144.835938 113.996094 L 144.726562 113.925781 L 143.8125 113.367188 L 143.355469 113.074219 L 143.015625 112.851562 L 142.957031 112.8125 L 142.898438 112.777344 L 141.988281 112.152344 L 141.53125 111.828125 L 141.191406 111.582031 L 141.074219 111.496094 L 139.390625 110.203125 L 138.550781 109.515625 L 138.128906 109.164062 L 137.8125 108.894531 L 137.761719 108.847656 L 137.707031 108.800781 L 134.097656 105.4375 L 130.773438 101.890625 L 127.207031 97.621094 L 123.570312 92.773438 L 120.21875 87.851562 L 116.628906 82.105469 L 113.316406 76.371094 L 109.9375 70.089844 L 106.320312 62.878906 L 102.984375 55.785156 L 99.40625 47.710938 L 95.765625 38.984375 L 92.402344 30.480469 L 88.800781 20.890625 L 88.042969 18.777344 Z M 75.117188 18.777344 " transform="matrix(1,0,0,1,-74,-13)"/>
</g>
<g clip-path="url(#clip2)" clip-rule="nonzero">
<path style="fill:none;stroke-width:1.6;stroke-linecap:square;stroke-linejoin:miter;stroke:rgb(0%,44.444275%,0%);stroke-opacity:1;stroke-miterlimit:3.25;" d="M 88.042969 18.777344 L 88.800781 20.890625 L 92.402344 30.480469 L 95.765625 38.984375 L 99.40625 47.710938 L 102.984375 55.785156 L 106.320312 62.878906 L 109.9375 70.089844 L 113.316406 76.371094 L 116.628906 82.105469 L 120.21875 87.851562 L 123.570312 92.773438 L 127.207031 97.621094 L 130.773438 101.890625 L 134.097656 105.4375 L 137.707031 108.800781 L 137.761719 108.847656 L 137.8125 108.894531 L 138.128906 109.164062 L 138.550781 109.515625 L 139.390625 110.203125 L 141.074219 111.496094 L 141.191406 111.582031 L 141.53125 111.828125 L 141.988281 112.152344 L 142.898438 112.777344 L 142.957031 112.8125 L 143.015625 112.851562 L 143.355469 113.074219 L 143.8125 113.367188 L 144.726562 113.925781 L 144.835938 113.996094 L 144.949219 114.058594 L 145.171875 114.191406 L 145.621094 114.445312 L 146.515625 114.933594 L 146.570312 114.964844 L 146.628906 114.992188 L 146.738281 115.050781 L 146.964844 115.167969 L 147.410156 115.394531 L 148.308594 115.820312 L 148.359375 115.84375 L 148.414062 115.867188 L 148.515625 115.914062 L 148.726562 116.007812 L 149.144531 116.191406 L 149.980469 116.535156 L 150.082031 116.574219 L 150.1875 116.617188 L 150.398438 116.695312 L 150.816406 116.851562 L 151.648438 117.144531 L 151.707031 117.160156 L 151.761719 117.179688 L 151.875 117.21875 L 152.554688 117.429688 L 152.613281 117.445312 L 152.667969 117.460938 L 152.78125 117.496094 L 153.460938 117.683594 L 153.519531 117.699219 L 153.574219 117.710938 L 153.6875 117.742188 L 154.367188 117.90625 L 155.273438 118.097656 L 155.328125 118.105469 L 155.378906 118.117188 L 155.695312 118.175781 L 156.121094 118.246094 L 156.171875 118.253906 L 156.226562 118.265625 L 156.542969 118.3125 L 156.964844 118.371094 L 157.019531 118.375 L 157.070312 118.382812 L 157.175781 118.394531 L 157.390625 118.421875 L 157.441406 118.425781 L 157.496094 118.433594 L 157.601562 118.445312 L 157.8125 118.464844 L 157.863281 118.472656 L 157.917969 118.476562 L 158.023438 118.484375 L 158.234375 118.503906 L 158.289062 118.507812 L 158.339844 118.511719 L 158.65625 118.535156 L 158.710938 118.539062 L 158.761719 118.539062 L 158.863281 118.546875 L 158.917969 118.550781 L 158.96875 118.550781 L 159.070312 118.558594 L 159.125 118.558594 L 159.175781 118.5625 L 159.28125 118.566406 L 159.332031 118.570312 L 159.382812 118.570312 L 159.488281 118.574219 L 159.539062 118.578125 L 159.640625 118.578125 L 159.695312 118.582031 L 159.796875 118.582031 L 159.851562 118.585938 L 160.058594 118.585938 L 160.109375 118.589844 L 160.574219 118.589844 L 160.628906 118.585938 L 160.835938 118.585938 L 160.886719 118.582031 L 161.042969 118.582031 L 161.144531 118.578125 L 161.195312 118.574219 L 161.25 118.574219 L 161.351562 118.570312 L 161.40625 118.566406 L 161.457031 118.566406 L 161.558594 118.5625 L 161.613281 118.558594 L 161.664062 118.554688 L 161.765625 118.550781 L 161.976562 118.539062 L 162.085938 118.53125 L 162.425781 118.507812 L 162.535156 118.5 L 162.648438 118.488281 L 162.875 118.46875 L 162.929688 118.460938 L 162.988281 118.457031 L 163.097656 118.445312 L 163.324219 118.421875 L 163.773438 118.367188 L 163.832031 118.359375 L 163.886719 118.351562 L 164 118.335938 L 164.222656 118.304688 L 164.671875 118.234375 L 164.730469 118.222656 L 164.785156 118.214844 L 165.125 118.15625 L 165.574219 118.070312 L 165.625 118.058594 L 165.679688 118.046875 L 165.78125 118.027344 L 165.992188 117.984375 L 166.414062 117.890625 L 166.464844 117.875 L 166.519531 117.863281 L 166.621094 117.839844 L 166.832031 117.789062 L 167.253906 117.679688 L 167.304688 117.667969 L 167.355469 117.652344 L 167.460938 117.625 L 167.671875 117.566406 L 168.09375 117.445312 L 168.929688 117.1875 L 169.046875 117.148438 L 169.386719 117.03125 L 169.839844 116.871094 L 170.75 116.527344 L 170.808594 116.503906 L 170.863281 116.480469 L 170.980469 116.4375 L 171.207031 116.34375 L 171.660156 116.148438 L 172.570312 115.742188 L 172.625 115.714844 L 172.683594 115.6875 L 172.792969 115.636719 L 173.019531 115.53125 L 173.464844 115.308594 L 174.359375 114.847656 L 176.144531 113.832031 L 176.195312 113.800781 L 176.25 113.769531 L 176.351562 113.707031 L 176.5625 113.578125 L 176.976562 113.316406 L 177.808594 112.773438 L 179.476562 111.613281 L 179.535156 111.570312 L 179.589844 111.53125 L 179.703125 111.445312 L 179.929688 111.277344 L 180.378906 110.9375 L 181.285156 110.230469 L 183.089844 108.726562 L 186.464844 105.582031 L 189.773438 102.078125 L 193.359375 97.800781 L 196.710938 93.371094 L 200.339844 88.082031 L 203.730469 82.691406 L 207.050781 76.980469 L 210.65625 70.308594 L 214.019531 63.636719 L 217.667969 55.914062 L 221.246094 47.84375 L 224.585938 39.871094 L 228.203125 30.746094 L 231.585938 21.777344 L 232.664062 18.777344 " transform="matrix(1,0,0,1,-74,-13)"/>
</g>
<path style="fill:none;stroke-width:0.2;stroke-linecap:butt;stroke-linejoin:miter;stroke:rgb(39.99939%,39.99939%,39.99939%);stroke-opacity:1;stroke-miterlimit:3.25;" d="M 75.117188 118.589844 L 245.589844 118.589844 " transform="matrix(1,0,0,1,-74,-13)"/>
<path style="fill:none;stroke-width:0.2;stroke-linecap:butt;stroke-linejoin:miter;stroke:rgb(39.99939%,39.99939%,39.99939%);stroke-opacity:1;stroke-miterlimit:3.25;" d="M 75.117188 124.132812 L 75.117188 18.777344 " transform="matrix(1,0,0,1,-74,-13)"/>
<path style="fill:none;stroke-width:1.6;stroke-linecap:square;stroke-linejoin:miter;stroke:rgb(0%,0%,0%);stroke-opacity:1;stroke-miterlimit:3.25;" d="M 277.457031 103.339844 L 413.835938 103.339844 " transform="matrix(1,0,0,1,-74,-13)"/>
<path style="fill:none;stroke-width:1.6;stroke-linecap:square;stroke-linejoin:miter;stroke:rgb(0%,0%,0%);stroke-opacity:1;stroke-miterlimit:3.25;" d="M 277.457031 94.46875 L 413.835938 94.46875 " transform="matrix(1,0,0,1,-74,-13)"/>
<path style="fill:none;stroke-width:1.6;stroke-linecap:square;stroke-linejoin:miter;stroke:rgb(0%,0%,0%);stroke-opacity:1;stroke-miterlimit:3.25;" d="M 277.457031 86.703125 L 413.835938 86.703125 " transform="matrix(1,0,0,1,-74,-13)"/>
<path style="fill:none;stroke-width:1.6;stroke-linecap:square;stroke-linejoin:miter;stroke:rgb(0%,0%,0%);stroke-opacity:1;stroke-miterlimit:3.25;" d="M 277.457031 80.050781 L 413.835938 80.050781 " transform="matrix(1,0,0,1,-74,-13)"/>
<g clip-path="url(#clip3)" clip-rule="nonzero">
<path style="fill:none;stroke-width:1.6;stroke-linecap:square;stroke-linejoin:miter;stroke:rgb(0%,0%,0%);stroke-opacity:1;stroke-miterlimit:3.25;" d="M 283.71875 18.777344 L 285.746094 26.066406 L 288.402344 35.066406 L 291.28125 44.21875 L 293.972656 52.199219 L 296.886719 60.253906 L 299.75 67.574219 L 302.417969 73.894531 L 305.3125 80.207031 L 308.015625 85.605469 L 310.664062 90.445312 L 313.535156 95.214844 L 316.21875 99.214844 L 319.125 103.082031 L 321.980469 106.417969 L 324.640625 109.132812 L 327.527344 111.660156 L 327.570312 111.695312 L 327.613281 111.726562 L 327.695312 111.792969 L 327.863281 111.925781 L 328.199219 112.1875 L 328.875 112.695312 L 330.222656 113.640625 L 330.265625 113.667969 L 330.3125 113.699219 L 330.402344 113.761719 L 330.953125 114.113281 L 331.679688 114.5625 L 331.773438 114.617188 L 331.863281 114.671875 L 332.046875 114.777344 L 332.410156 114.988281 L 333.140625 115.386719 L 333.1875 115.410156 L 333.230469 115.433594 L 333.5 115.574219 L 333.859375 115.753906 L 334.574219 116.097656 L 334.617188 116.121094 L 334.664062 116.140625 L 334.753906 116.179688 L 334.933594 116.261719 L 335.289062 116.417969 L 336.007812 116.714844 L 336.050781 116.734375 L 336.089844 116.75 L 336.175781 116.78125 L 336.339844 116.847656 L 336.675781 116.972656 L 337.34375 117.210938 L 337.386719 117.222656 L 337.429688 117.238281 L 337.511719 117.265625 L 337.679688 117.320312 L 338.011719 117.429688 L 338.679688 117.625 L 338.726562 117.640625 L 338.773438 117.652344 L 338.863281 117.675781 L 339.042969 117.726562 L 339.40625 117.820312 L 339.453125 117.832031 L 339.496094 117.84375 L 339.585938 117.863281 L 339.769531 117.90625 L 340.132812 117.988281 L 340.175781 118 L 340.222656 118.011719 L 340.3125 118.03125 L 340.492188 118.066406 L 340.855469 118.140625 L 340.902344 118.148438 L 340.945312 118.15625 L 341.035156 118.171875 L 341.21875 118.207031 L 341.582031 118.265625 L 341.621094 118.273438 L 341.664062 118.28125 L 341.75 118.292969 L 341.917969 118.320312 L 342.257812 118.367188 L 342.34375 118.375 L 342.425781 118.386719 L 342.59375 118.410156 L 342.933594 118.445312 L 342.976562 118.449219 L 343.019531 118.457031 L 343.101562 118.464844 L 343.316406 118.484375 L 343.355469 118.488281 L 343.441406 118.496094 L 343.609375 118.507812 L 343.78125 118.523438 L 343.949219 118.535156 L 343.992188 118.535156 L 344.035156 118.539062 L 344.117188 118.542969 L 344.289062 118.554688 L 344.328125 118.554688 L 344.371094 118.558594 L 344.453125 118.5625 L 344.496094 118.5625 L 344.535156 118.566406 L 344.617188 118.570312 L 344.703125 118.570312 L 344.785156 118.574219 L 344.828125 118.578125 L 344.949219 118.578125 L 344.992188 118.582031 L 345.117188 118.582031 L 345.15625 118.585938 L 345.367188 118.585938 L 345.40625 118.589844 L 345.863281 118.589844 L 345.90625 118.585938 L 346.152344 118.585938 L 346.195312 118.582031 L 346.320312 118.582031 L 346.359375 118.578125 L 346.445312 118.578125 L 346.484375 118.574219 L 346.527344 118.574219 L 346.609375 118.570312 L 346.652344 118.570312 L 346.691406 118.566406 L 346.773438 118.566406 L 346.941406 118.558594 L 346.984375 118.554688 L 347.03125 118.554688 L 347.121094 118.546875 L 347.300781 118.539062 L 347.347656 118.535156 L 347.390625 118.53125 L 347.480469 118.527344 L 347.660156 118.511719 L 347.707031 118.507812 L 347.75 118.503906 L 347.839844 118.5 L 348.019531 118.484375 L 348.378906 118.449219 L 348.425781 118.445312 L 348.46875 118.4375 L 348.558594 118.429688 L 348.742188 118.410156 L 349.101562 118.367188 L 349.144531 118.359375 L 349.191406 118.355469 L 349.28125 118.34375 L 349.460938 118.316406 L 349.820312 118.265625 L 349.863281 118.257812 L 349.902344 118.25 L 349.988281 118.238281 L 350.15625 118.210938 L 350.492188 118.152344 L 351.164062 118.027344 L 351.207031 118.019531 L 351.246094 118.011719 L 351.332031 117.992188 L 351.5 117.957031 L 351.835938 117.882812 L 352.507812 117.726562 L 352.550781 117.714844 L 352.597656 117.703125 L 352.6875 117.683594 L 352.871094 117.636719 L 353.234375 117.539062 L 353.960938 117.332031 L 354.054688 117.308594 L 354.144531 117.28125 L 354.328125 117.222656 L 354.691406 117.109375 L 355.417969 116.871094 L 355.460938 116.855469 L 355.507812 116.839844 L 355.597656 116.808594 L 355.773438 116.746094 L 356.132812 116.621094 L 356.847656 116.351562 L 358.277344 115.769531 L 358.316406 115.753906 L 358.359375 115.734375 L 358.441406 115.699219 L 358.609375 115.625 L 358.941406 115.476562 L 359.609375 115.171875 L 360.941406 114.523438 L 363.835938 112.949219 L 366.535156 111.285156 L 369.179688 109.480469 L 372.050781 107.347656 L 374.730469 105.203125 L 377.632812 102.730469 L 380.34375 100.292969 L 383.003906 97.796875 L 385.886719 94.984375 L 388.578125 92.277344 L 391.496094 89.265625 L 394.359375 86.25 L 397.027344 83.394531 L 399.925781 80.269531 L 402.628906 77.339844 L 405.28125 74.46875 L 408.15625 71.371094 L 410.839844 68.503906 L 410.886719 68.457031 L 411.027344 68.304688 L 411.214844 68.109375 L 411.585938 67.710938 L 412.335938 66.921875 L 412.382812 66.875 L 412.429688 66.824219 L 412.710938 66.53125 L 413.085938 66.136719 L 413.132812 66.089844 L 413.179688 66.039062 L 413.460938 65.746094 L 413.507812 65.695312 L 413.554688 65.648438 L 413.648438 65.550781 L 413.695312 65.5 L 413.742188 65.453125 L 413.789062 65.402344 L 413.835938 65.355469 " transform="matrix(1,0,0,1,-74,-13)"/>
</g>
<path style="fill-rule:nonzero;fill:rgb(99.998474%,99.998474%,99.998474%);fill-opacity:1;stroke-width:0.03;stroke-linecap:square;stroke-linejoin:miter;stroke:rgb(99.998474%,99.998474%,99.998474%);stroke-opacity:1;stroke-miterlimit:3.25;" d="M 260.410156 18.777344 L 260.410156 118.589844 L 430.882812 118.589844 L 430.882812 49.273438 L 430.824219 49.320312 L 430.765625 49.371094 L 430.648438 49.464844 L 430.53125 49.5625 L 430.414062 49.65625 L 430.179688 49.851562 L 430.0625 49.945312 L 430.003906 49.996094 L 429.945312 50.042969 L 429.476562 50.433594 L 429.242188 50.632812 L 429.125 50.730469 L 429.066406 50.78125 L 429.007812 50.828125 L 428.074219 51.632812 L 427.195312 52.394531 L 427.136719 52.449219 L 423.78125 55.488281 L 420.1875 58.925781 L 416.875 62.230469 L 413.496094 65.710938 L 409.875 69.53125 L 406.535156 73.113281 L 402.957031 76.984375 L 399.3125 80.933594 L 395.945312 84.554688 L 392.34375 88.378906 L 389.019531 91.824219 L 385.628906 95.238281 L 382 98.75 L 378.652344 101.828125 L 375.0625 104.925781 L 371.753906 107.574219 L 368.382812 110.039062 L 364.765625 112.394531 L 363.101562 113.371094 L 362.269531 113.832031 L 361.851562 114.054688 L 361.644531 114.164062 L 361.539062 114.21875 L 361.488281 114.246094 L 361.433594 114.273438 L 359.648438 115.15625 L 358.753906 115.5625 L 358.308594 115.757812 L 358.085938 115.851562 L 357.972656 115.898438 L 357.917969 115.921875 L 357.859375 115.945312 L 356.953125 116.3125 L 356.496094 116.484375 L 356.15625 116.613281 L 356.097656 116.632812 L 356.042969 116.652344 L 355.132812 116.96875 L 354.675781 117.113281 L 354.449219 117.1875 L 354.335938 117.222656 L 354.277344 117.238281 L 354.222656 117.257812 L 353.382812 117.5 L 352.960938 117.613281 L 352.753906 117.664062 L 352.648438 117.691406 L 352.59375 117.703125 L 352.542969 117.71875 L 351.703125 117.914062 L 351.285156 118.003906 L 351.074219 118.042969 L 350.96875 118.066406 L 350.914062 118.074219 L 350.863281 118.085938 L 350.414062 118.167969 L 350.1875 118.207031 L 350.078125 118.222656 L 350.019531 118.234375 L 349.964844 118.242188 L 349.515625 118.308594 L 349.175781 118.355469 L 349.121094 118.363281 L 349.0625 118.371094 L 348.613281 118.425781 L 348.390625 118.449219 L 348.277344 118.460938 L 348.222656 118.464844 L 348.164062 118.46875 L 347.941406 118.488281 L 347.828125 118.5 L 347.769531 118.503906 L 347.714844 118.507812 L 347.488281 118.523438 L 347.378906 118.53125 L 347.320312 118.535156 L 347.265625 118.539062 L 347.058594 118.550781 L 346.953125 118.558594 L 346.902344 118.558594 L 346.851562 118.5625 L 346.746094 118.566406 L 346.695312 118.566406 L 346.644531 118.570312 L 346.539062 118.574219 L 346.488281 118.574219 L 346.4375 118.578125 L 346.332031 118.582031 L 346.175781 118.582031 L 346.125 118.585938 L 345.917969 118.585938 L 345.867188 118.589844 L 345.398438 118.589844 L 345.347656 118.585938 L 345.140625 118.585938 L 345.089844 118.582031 L 344.984375 118.582031 L 344.933594 118.578125 L 344.828125 118.578125 L 344.777344 118.574219 L 344.671875 118.570312 L 344.621094 118.570312 L 344.570312 118.566406 L 344.464844 118.5625 L 344.414062 118.558594 L 344.363281 118.558594 L 344.257812 118.550781 L 344.207031 118.550781 L 344.15625 118.546875 L 344.050781 118.539062 L 344 118.535156 L 343.949219 118.535156 L 343.738281 118.519531 L 343.628906 118.511719 L 343.578125 118.507812 L 343.523438 118.503906 L 343.3125 118.484375 L 343.207031 118.472656 L 343.15625 118.46875 L 343.101562 118.464844 L 342.785156 118.429688 L 342.730469 118.425781 L 342.679688 118.417969 L 342.46875 118.394531 L 342.363281 118.378906 L 342.308594 118.371094 L 342.257812 118.367188 L 341.832031 118.304688 L 341.515625 118.257812 L 341.464844 118.246094 L 341.410156 118.238281 L 340.988281 118.164062 L 340.777344 118.125 L 340.671875 118.101562 L 340.617188 118.09375 L 340.5625 118.082031 L 340.113281 117.984375 L 339.886719 117.933594 L 339.773438 117.90625 L 339.714844 117.894531 L 339.660156 117.882812 L 339.207031 117.769531 L 338.867188 117.675781 L 338.808594 117.660156 L 338.753906 117.644531 L 338.300781 117.515625 L 337.960938 117.410156 L 337.902344 117.394531 L 337.847656 117.375 L 337.394531 117.226562 L 337.054688 117.109375 L 336.996094 117.089844 L 336.941406 117.070312 L 336.105469 116.753906 L 335.6875 116.585938 L 335.476562 116.5 L 335.375 116.453125 L 335.320312 116.433594 L 335.269531 116.410156 L 334.433594 116.03125 L 334.015625 115.832031 L 333.808594 115.730469 L 333.703125 115.675781 L 333.648438 115.652344 L 333.597656 115.625 L 332.703125 115.148438 L 332.253906 114.898438 L 332.03125 114.769531 L 331.917969 114.703125 L 331.863281 114.671875 L 331.804688 114.636719 L 330.910156 114.089844 L 330.464844 113.800781 L 330.238281 113.652344 L 330.128906 113.574219 L 330.070312 113.539062 L 330.015625 113.5 L 329.101562 112.859375 L 328.648438 112.527344 L 328.417969 112.355469 L 328.304688 112.269531 L 328.246094 112.222656 L 328.191406 112.179688 L 327.277344 111.457031 L 326.820312 111.082031 L 326.59375 110.890625 L 326.480469 110.792969 L 326.421875 110.742188 L 326.367188 110.695312 L 324.683594 109.171875 L 323.839844 108.355469 L 323.417969 107.933594 L 323.207031 107.71875 L 323.101562 107.609375 L 322.996094 107.503906 L 321.195312 105.546875 L 320.292969 104.5 L 319.839844 103.960938 L 319.617188 103.6875 L 319.503906 103.546875 L 319.445312 103.480469 L 319.390625 103.410156 L 316.0625 98.992188 L 312.496094 93.542969 L 308.863281 87.203125 L 305.511719 80.617188 L 301.917969 72.746094 L 298.605469 64.71875 L 295.230469 55.746094 L 291.609375 45.21875 L 288.273438 34.648438 L 284.699219 22.371094 L 283.730469 18.777344 Z M 260.410156 18.777344 " transform="matrix(1,0,0,1,-74,-13)"/>
<g clip-path="url(#clip4)" clip-rule="nonzero">
<path style="fill:none;stroke-width:1.6;stroke-linecap:square;stroke-linejoin:miter;stroke:rgb(39.99939%,26.66626%,13.33313%);stroke-opacity:1;stroke-miterlimit:3.25;" d="M 283.730469 18.777344 L 284.699219 22.371094 L 288.273438 34.648438 L 291.609375 45.21875 L 295.230469 55.746094 L 298.605469 64.71875 L 301.917969 72.746094 L 305.511719 80.617188 L 308.863281 87.203125 L 312.496094 93.542969 L 316.0625 98.992188 L 319.390625 103.410156 L 319.445312 103.480469 L 319.503906 103.546875 L 319.617188 103.6875 L 319.839844 103.960938 L 320.292969 104.5 L 321.195312 105.546875 L 322.996094 107.503906 L 323.101562 107.609375 L 323.207031 107.71875 L 323.417969 107.933594 L 323.839844 108.355469 L 324.683594 109.171875 L 326.367188 110.695312 L 326.421875 110.742188 L 326.480469 110.792969 L 326.59375 110.890625 L 326.820312 111.082031 L 327.277344 111.457031 L 328.191406 112.179688 L 328.246094 112.222656 L 328.304688 112.269531 L 328.417969 112.355469 L 328.648438 112.527344 L 329.101562 112.859375 L 330.015625 113.5 L 330.070312 113.539062 L 330.128906 113.574219 L 330.238281 113.652344 L 330.464844 113.800781 L 330.910156 114.089844 L 331.804688 114.636719 L 331.863281 114.671875 L 331.917969 114.703125 L 332.03125 114.769531 L 332.253906 114.898438 L 332.703125 115.148438 L 333.597656 115.625 L 333.648438 115.652344 L 333.703125 115.675781 L 333.808594 115.730469 L 334.015625 115.832031 L 334.433594 116.03125 L 335.269531 116.410156 L 335.320312 116.433594 L 335.375 116.453125 L 335.476562 116.5 L 335.6875 116.585938 L 336.105469 116.753906 L 336.941406 117.070312 L 336.996094 117.089844 L 337.054688 117.109375 L 337.394531 117.226562 L 337.847656 117.375 L 337.902344 117.394531 L 337.960938 117.410156 L 338.300781 117.515625 L 338.753906 117.644531 L 338.808594 117.660156 L 338.867188 117.675781 L 339.207031 117.769531 L 339.660156 117.882812 L 339.714844 117.894531 L 339.773438 117.90625 L 339.886719 117.933594 L 340.113281 117.984375 L 340.5625 118.082031 L 340.617188 118.09375 L 340.671875 118.101562 L 340.777344 118.125 L 340.988281 118.164062 L 341.410156 118.238281 L 341.464844 118.246094 L 341.515625 118.257812 L 341.832031 118.304688 L 342.257812 118.367188 L 342.308594 118.371094 L 342.363281 118.378906 L 342.46875 118.394531 L 342.679688 118.417969 L 342.730469 118.425781 L 342.785156 118.429688 L 343.101562 118.464844 L 343.15625 118.46875 L 343.207031 118.472656 L 343.3125 118.484375 L 343.523438 118.503906 L 343.578125 118.507812 L 343.628906 118.511719 L 343.738281 118.519531 L 343.949219 118.535156 L 344 118.535156 L 344.050781 118.539062 L 344.15625 118.546875 L 344.207031 118.550781 L 344.257812 118.550781 L 344.363281 118.558594 L 344.414062 118.558594 L 344.464844 118.5625 L 344.570312 118.566406 L 344.621094 118.570312 L 344.671875 118.570312 L 344.777344 118.574219 L 344.828125 118.578125 L 344.933594 118.578125 L 344.984375 118.582031 L 345.089844 118.582031 L 345.140625 118.585938 L 345.347656 118.585938 L 345.398438 118.589844 L 345.867188 118.589844 L 345.917969 118.585938 L 346.125 118.585938 L 346.175781 118.582031 L 346.332031 118.582031 L 346.4375 118.578125 L 346.488281 118.574219 L 346.539062 118.574219 L 346.644531 118.570312 L 346.695312 118.566406 L 346.746094 118.566406 L 346.851562 118.5625 L 346.902344 118.558594 L 346.953125 118.558594 L 347.058594 118.550781 L 347.265625 118.539062 L 347.320312 118.535156 L 347.378906 118.53125 L 347.488281 118.523438 L 347.714844 118.507812 L 347.769531 118.503906 L 347.828125 118.5 L 347.941406 118.488281 L 348.164062 118.46875 L 348.222656 118.464844 L 348.277344 118.460938 L 348.390625 118.449219 L 348.613281 118.425781 L 349.0625 118.371094 L 349.121094 118.363281 L 349.175781 118.355469 L 349.515625 118.308594 L 349.964844 118.242188 L 350.019531 118.234375 L 350.078125 118.222656 L 350.1875 118.207031 L 350.414062 118.167969 L 350.863281 118.085938 L 350.914062 118.074219 L 350.96875 118.066406 L 351.074219 118.042969 L 351.285156 118.003906 L 351.703125 117.914062 L 352.542969 117.71875 L 352.59375 117.703125 L 352.648438 117.691406 L 352.753906 117.664062 L 352.960938 117.613281 L 353.382812 117.5 L 354.222656 117.257812 L 354.277344 117.238281 L 354.335938 117.222656 L 354.449219 117.1875 L 354.675781 117.113281 L 355.132812 116.96875 L 356.042969 116.652344 L 356.097656 116.632812 L 356.15625 116.613281 L 356.496094 116.484375 L 356.953125 116.3125 L 357.859375 115.945312 L 357.917969 115.921875 L 357.972656 115.898438 L 358.085938 115.851562 L 358.308594 115.757812 L 358.753906 115.5625 L 359.648438 115.15625 L 361.433594 114.273438 L 361.488281 114.246094 L 361.539062 114.21875 L 361.644531 114.164062 L 361.851562 114.054688 L 362.269531 113.832031 L 363.101562 113.371094 L 364.765625 112.394531 L 368.382812 110.039062 L 371.753906 107.574219 L 375.0625 104.925781 L 378.652344 101.828125 L 382 98.75 L 385.628906 95.238281 L 389.019531 91.824219 L 392.34375 88.378906 L 395.945312 84.554688 L 399.3125 80.933594 L 402.957031 76.984375 L 406.535156 73.113281 L 409.875 69.53125 L 413.496094 65.710938 L 416.875 62.230469 L 420.1875 58.925781 L 423.78125 55.488281 L 427.136719 52.449219 L 427.195312 52.394531 L 428.074219 51.632812 L 429.007812 50.828125 L 429.066406 50.78125 L 429.125 50.730469 L 429.242188 50.632812 L 429.476562 50.433594 L 429.945312 50.042969 L 430.003906 49.996094 L 430.0625 49.945312 L 430.179688 49.851562 L 430.414062 49.65625 L 430.53125 49.5625 L 430.648438 49.464844 L 430.765625 49.371094 L 430.824219 49.320312 L 430.882812 49.273438 " transform="matrix(1,0,0,1,-74,-13)"/>
</g>
<path style="fill:none;stroke-width:0.2;stroke-linecap:butt;stroke-linejoin:miter;stroke:rgb(39.99939%,39.99939%,39.99939%);stroke-opacity:1;stroke-miterlimit:3.25;" d="M 260.410156 118.589844 L 430.882812 118.589844 " transform="matrix(1,0,0,1,-74,-13)"/>
<path style="fill:none;stroke-width:0.2;stroke-linecap:butt;stroke-linejoin:miter;stroke:rgb(39.99939%,39.99939%,39.99939%);stroke-opacity:1;stroke-miterlimit:3.25;" d="M 260.410156 124.132812 L 260.410156 18.777344 " transform="matrix(1,0,0,1,-74,-13)"/>
</g>
</svg>
